<?xml version="1.0" encoding="UTF-8"?>
<svg width="25" height="41" viewBox="0 0 25 41" fill="none" xmlns="http://www.w3.org/2000/svg">
  <path d="M12.5 0C5.59644 0 0 5.59644 0 12.5C0 21.875 12.5 41 12.5 41C12.5 41 25 21.875 25 12.5C25 5.59644 19.4036 0 12.5 0Z" fill="#44B3FF"/>
  <circle cx="12.5" cy="12.5" r="6.5" fill="white"/>
  <path d="M12.5 8C13.2 8 13.8 8.2 14.3 8.7C14.8 9.2 15 9.8 15 10.5C15 11.2 14.8 11.8 14.3 12.3L12.5 17L10.7 12.3C10.2 11.8 10 11.2 10 10.5C10 9.8 10.2 9.2 10.7 8.7C11.2 8.2 11.8 8 12.5 8Z" fill="#44B3FF"/>
</svg> 